# xmcd CD database file
#
# Track frame offsets:
#	150
#	47972
#	74336
#	86244
#	101854
#	112792
#	147878
#	167914
#	180548
#	188516
#
# Disc length: 2998 seconds
#
# Revision: 2
# Processed by: cddbd v1.5.2PL0 Copyright (c) Steve Scherf et al.
# Submitted via: CDex 1.70beta2
#
DISCID=890bb40a
DTITLE=Jimi Hendrix - Jimi Hendrix 2CD [CD2) 
DYEAR=2006
DGENRE=Rock
TTITLE0=Red House
TTITLE1=Hound Dog
TTITLE2=She's A fox
TTITLE3=Soul Food (Thats What I Like)
TTITLE4=Goodbye Bessie Mae
TTITLE5=Outside Woman Blues
TTITLE6=Under The Table Part 1
TTITLE7=Under The Table Part 2
TTITLE8=Tomorrow Never Knows
TTITLE9=Morrisons Lament
EXTD=YEAR: 2006
EXTT0=
EXTT1=
EXTT2=
EXTT3=
EXTT4=
EXTT5=
EXTT6=
EXTT7=
EXTT8=
EXTT9=
PLAYORDER=
